<svg id="dona" xmlns="http://www.w3.org/2000/svg" xmlns:xlink="http://www.w3.org/1999/xlink" viewBox="0 0 1280 720"><defs><style>.cls-1{fill:#fff;}.cls-1,.cls-2,.cls-3,.cls-4,.cls-5,.cls-6{stroke:#000;stroke-miterlimit:10;}.cls-2{fill:#a92d0e;}.cls-3{fill:#855829;}.cls-4{fill:#100789;}.cls-5{fill:#aa8b52;}.cls-5,.cls-6{stroke-width:2px;}.cls-6{fill:#c22e70;}.cls-7{fill:#3a080f;}</style><symbol id="dulce4" data-name="dulce4" viewBox="0 0 14.35 12.83"><path class="cls-4" d="M11.5.52S5.88,1,5.31,1.58s-2.43,2-2.43,2-1.32.25-1.5.69A5.41,5.41,0,0,0,.5,6.45V8.33a8.54,8.54,0,0,0,.75,2.5c.44.94.88,1.75,1.88,1.44S4.69,8.7,4.94,8.39,6,5.77,7.44,5.77s1.81-.32,3.06-.13,3.31-1.31,3.31-1.31L13.5,2.08Z"/></symbol><symbol id="dulce3" data-name="dulce3" viewBox="0 0 11.89 16.5"><path class="cls-3" d="M7,8.77A36.65,36.65,0,0,1,7,5c.13-1.25.63-3.75,0-3.87S2.42.52,2.42.52A5.17,5.17,0,0,0,1.29,1.9,10,10,0,0,0,.54,4.65S4,6.4,4,6.77a14.89,14.89,0,0,0,1.59,4.38c.75,1.12.38,2.25,1.13,3.37s.37,2,2,1.13,3.12-2,2.62-2.88A38.5,38.5,0,0,0,7,8.77Z"/></symbol><symbol id="dulce2" data-name="dulce2" viewBox="0 0 12.15 15.88"><path class="cls-2" d="M10.25.66S5.26-1.25,1.93,8s-.05,7.54,1.81,6.85,5.68-6,5.88-6.22,1.46-5.23,1.46-5.43S12.8.86,10.25.66Z"/></symbol><symbol id="dulce1" data-name="dulce1" viewBox="0 0 14.41 9.81"><path class="cls-1" d="M10,5.21s4.61-.83,3.78-2.37S12.27-.24,10,.88s-1.53,1-2.23,2S4.86,4.66,4,5.21,1.65,6.75,1.65,6.75,0,9.13.67,9.27s2.24-.14,2.66,0S10,5.21,10,5.21Z"/></symbol></defs><path class="cls-5" d="M637.27,420.63s22.9-52.57-6.34-91.54S569.06,284.75,508.16,294s-91.6,60.41-85.76,107.18,6.05,60.14,58.18,85.48c21.41,10.4,61.94,12.56,78.95,7.72a96.67,96.67,0,0,0,52.31-37.6Z"/><path class="cls-6" d="M512.5,301.5C511,303,509,308,503,308s-12.5-3.25-12.5-3.25L479,308s-5.5-3-6.5,0,.5,8.5-2.5,9.5-4.5-2-8,0l-3.5,2H455s-4.5,1.5-5.5,4-11,14-11,14,1.5-1.5,0,2.5,1.5,11,0,12.5-6,12-7,15.5a36.86,36.86,0,0,1-3,7s-3.5,4.5-4,7.5.5,6,0,9.5,5,6.5,5,6.5a13.27,13.27,0,0,1,1,5.5c0,3.5-.5,3,0,8.5s.5,5.5,1.5,9,0,3,1,7.5-1-.5,1,4.5.5,3.5,4,9,2.5,3.5,6,7.5,3.5,2.5,6,5,8.5-1.5,11,4.5,1.5,6,3,9.5,5.5,7,6.5,9,2,.5,4,3,3,2,8,2.5,12.5,1.5,14,0S507,481,507,481s32.5,7.5,35.5,9,20.5-4.5,20.5-4.5,1-5.5,3-5.5,15.5-4,15.5-4,2.5-3,4.5-3.5,4.5-5,4.5-5,9.5-9,11.5-9.5,10.5-2.5,10.5-2.5-1-1,0-4,0-12.5,0-12.5l4.5-13a4.11,4.11,0,0,0,0-4.5c-1.5-2.5-5-13.5-5-13.5s-3.87-8.5-2.44-10,4.94-24.5,4.94-26,1-20,0-22-1.5-7.5-1.5-7.5a7.85,7.85,0,0,0-3.44-8c-4.56-3-6.56-4.5-6.56-6s-2-8.5-2-8.5l-4-5.5s-7.5-4-9.5-5.5-6.5-20.5-7-7.5-38-4.52-38-4.52Z"/><use width="14.35" height="12.83" transform="translate(487.78 301.22)" xlink:href="#dulce4"/><use width="14.35" height="12.83" transform="translate(486.48 323.28)" xlink:href="#dulce4"/><use width="14.35" height="12.83" transform="translate(472.42 333.06)" xlink:href="#dulce4"/><use width="14.35" height="12.83" transform="translate(466.45 353.62)" xlink:href="#dulce4"/><use width="14.35" height="12.83" transform="translate(443.94 366.79)" xlink:href="#dulce4"/><use width="14.35" height="12.83" transform="translate(445.65 386.09)" xlink:href="#dulce4"/><use width="14.35" height="12.83" transform="translate(442.79 403.33)" xlink:href="#dulce4"/><use width="14.35" height="12.83" transform="translate(459.07 423.28)" xlink:href="#dulce4"/><use width="14.35" height="12.83" transform="translate(479.33 425.77)" xlink:href="#dulce4"/><use width="14.35" height="12.83" transform="translate(498.16 432.49)" xlink:href="#dulce4"/><use width="14.35" height="12.83" transform="translate(516.6 441.71)" xlink:href="#dulce4"/><use width="14.35" height="12.83" transform="translate(539.28 445.06)" xlink:href="#dulce4"/><use width="14.35" height="12.83" transform="translate(556.56 450.83)" xlink:href="#dulce4"/><use width="14.35" height="12.83" transform="translate(575.03 439.06)" xlink:href="#dulce4"/><use width="14.35" height="12.83" transform="translate(597.96 425.58)" xlink:href="#dulce4"/><use width="14.35" height="12.83" transform="translate(602.72 393.35)" xlink:href="#dulce4"/><use width="14.35" height="12.83" transform="translate(594.55 372.58)" xlink:href="#dulce4"/><use width="14.35" height="12.83" transform="translate(591.11 351.34)" xlink:href="#dulce4"/><use width="14.35" height="12.83" transform="translate(597.9 339.89)" xlink:href="#dulce4"/><use width="11.89" height="16.5" transform="translate(481.07 348.74)" xlink:href="#dulce3"/><use width="11.89" height="16.5" transform="translate(453.9 346.55)" xlink:href="#dulce3"/><use width="11.89" height="16.5" transform="translate(461.4 371.67)" xlink:href="#dulce3"/><use width="11.89" height="16.5" transform="translate(428.62 376.56)" xlink:href="#dulce3"/><use width="11.89" height="16.5" transform="translate(424.44 396.85)" xlink:href="#dulce3"/><use width="11.89" height="16.5" transform="translate(433.35 427.79)" xlink:href="#dulce3"/><use width="11.89" height="16.5" transform="translate(461.28 459.07)" xlink:href="#dulce3"/><use width="11.89" height="16.5" transform="translate(488.71 465.85)" xlink:href="#dulce3"/><use width="11.89" height="16.5" transform="translate(530.89 475.23)" xlink:href="#dulce3"/><use width="11.89" height="16.5" transform="translate(563.13 471.77)" xlink:href="#dulce3"/><use width="11.89" height="16.5" transform="translate(587.06 449.18)" xlink:href="#dulce3"/><use width="11.89" height="16.5" transform="translate(589.06 416.39)" xlink:href="#dulce3"/><use width="11.89" height="16.5" transform="translate(587.85 393.13)" xlink:href="#dulce3"/><use width="12.15" height="15.88" transform="translate(577.89 331.02)" xlink:href="#dulce2"/><use width="12.15" height="15.88" transform="translate(570.01 312.04)" xlink:href="#dulce2"/><use width="12.15" height="15.88" transform="translate(542.46 304.5)" xlink:href="#dulce2"/><use width="12.15" height="15.88" transform="translate(521.44 300.7)" xlink:href="#dulce2"/><use width="12.15" height="15.88" transform="translate(501.87 305.13)" xlink:href="#dulce2"/><use width="12.15" height="15.88" transform="translate(468.47 303.68)" xlink:href="#dulce2"/><use width="12.15" height="15.88" transform="translate(457.5 319.6)" xlink:href="#dulce2"/><use width="12.15" height="15.88" transform="translate(445.64 329.02)" xlink:href="#dulce2"/><use width="12.15" height="15.88" transform="translate(430.02 347.43)" xlink:href="#dulce2"/><use width="12.15" height="15.88" transform="translate(457.9 402.5)" xlink:href="#dulce2"/><use width="12.15" height="15.88" transform="translate(474.89 446.6)" xlink:href="#dulce2"/><use width="12.15" height="15.88" transform="translate(524.99 462.89)" xlink:href="#dulce2"/><use width="12.15" height="15.88" transform="translate(578.27 460.89)" xlink:href="#dulce2"/><use width="14.41" height="9.81" transform="translate(500.54 356.32) rotate(-70.28)" xlink:href="#dulce1"/><use width="14.41" height="9.81" transform="matrix(0.37, -0.93, 0.93, 0.37, 442.69, 366.55)" xlink:href="#dulce1"/><use width="14.41" height="9.81" transform="translate(426.73 415.18) rotate(-2.66)" xlink:href="#dulce1"/><use width="14.41" height="9.81" transform="translate(454.72 448.75) rotate(50.61)" xlink:href="#dulce1"/><use width="14.41" height="9.81" transform="translate(526.44 486.24) rotate(53.15)" xlink:href="#dulce1"/><use width="14.41" height="9.81" transform="translate(619.63 423.69) rotate(9.28)" xlink:href="#dulce1"/><use width="14.41" height="9.81" transform="translate(610.03 370.39) rotate(-18.38)" xlink:href="#dulce1"/><use width="14.41" height="9.81" transform="translate(572.03 358) rotate(-40.83)" xlink:href="#dulce1"/><use width="14.41" height="9.81" transform="matrix(0.57, -0.82, 0.82, 0.57, 535.9, 355.93)" xlink:href="#dulce1"/><use width="14.41" height="9.81" transform="translate(533.86 369.55) rotate(-54.72)" xlink:href="#dulce1"/><path d="M530.57,356.37S495.49,371.66,497.44,394s16.07,32.55,33.13,32.06,38.49-11,35.56-32.06S555.9,361.24,530.57,356.37Z"/><path class="cls-7" d="M437.63,376.32s-7.27,12.21,0,17.66S437.63,376.32,437.63,376.32Z"/><path class="cls-7" d="M468.66,423.2s-17.83-15.85-15.85-5.95S468.66,423.2,468.66,423.2Z"/><path class="cls-7" d="M520.15,454.89s-3.3,10.56,5.29,10.56S520.15,454.89,520.15,454.89Z"/><path class="cls-7" d="M468.66,349.91s-5.28,13.2,0,17.83S474.6,351.23,468.66,349.91Z"/><path class="cls-7" d="M561.75,334.06s-5.94,15.19,0,18.49S561.75,334.06,561.75,334.06Z"/><path class="cls-7" d="M609.28,362.45S580.9,371.7,589.48,373,609.28,362.45,609.28,362.45Z"/><path class="cls-7" d="M479.22,398.77s-7.26,7.26,0,9.9S487.8,403.39,479.22,398.77Z"/><path class="cls-7" d="M519.53,481.3s-33.08-11.89-22.17-13.21S519.53,481.3,519.53,481.3Z"/></svg>