<svg id="homero" xmlns="http://www.w3.org/2000/svg" xmlns:xlink="http://www.w3.org/1999/xlink" viewBox="0 0 1280 720"><defs><style>.cls-1,.cls-17{fill:#fff;}.cls-1,.cls-10,.cls-11,.cls-12,.cls-13,.cls-14,.cls-15,.cls-2,.cls-3,.cls-4,.cls-6,.cls-7,.cls-8,.cls-9{stroke:#000;stroke-miterlimit:10;}.cls-2{fill:#100789;}.cls-3{fill:#ffcc13;}.cls-14,.cls-4{fill:#c22e70;}.cls-5{fill:#3a080f;}.cls-6,.cls-7{fill:none;}.cls-7{stroke-dasharray:8.04 8.04;}.cls-8{fill:#aa8b52;}.cls-10{fill:#a92d0e;}.cls-11{fill:#90ade5;}.cls-12{fill:#5b79aa;}.cls-13,.cls-15{fill:#855829;}.cls-13,.cls-14{stroke-width:1.23px;}.cls-16{opacity:0.5;}</style><symbol id="dulce4" data-name="dulce4" viewBox="0 0 14.35 12.83"><path class="cls-2" d="M11.5.52S5.88,1,5.31,1.58s-2.43,2-2.43,2-1.32.25-1.5.69A5.41,5.41,0,0,0,.5,6.45V8.33a8.54,8.54,0,0,0,.75,2.5c.44.94.88,1.75,1.88,1.44S4.69,8.7,4.94,8.39,6,5.77,7.44,5.77s1.81-.32,3.06-.13,3.31-1.31,3.31-1.31L13.5,2.08Z"/></symbol><symbol id="dulce1" data-name="dulce1" viewBox="0 0 14.41 9.81"><path class="cls-1" d="M10,5.21s4.61-.83,3.78-2.37S12.27-.24,10,.88s-1.53,1-2.23,2S4.86,4.66,4,5.21,1.65,6.75,1.65,6.75,0,9.13.67,9.27s2.24-.14,2.66,0S10,5.21,10,5.21Z"/></symbol></defs><path class="cls-3" d="M892.15,252.33h3.05s58.95-8.05,88.38,1.13c0,0,3.27-9.3,7.42-9.68,0,0-.5-6.79,2.89-8.43s2.89,4.41,2.89,4.41-1.25-7,2.14-9.06,5.66-.75,4.91,5.53c0,0,1-11.82,5.66-11.31s1.76,10.06,1.76,10.06,1.51-11.83,8.68-10.82,2.89,12.83,2.89,12.83l.12,4.65v24.63H890Z"/><path class="cls-3" d="M671.47,240.34s7.32,1.75,10,3.66c0,0,16.86-23.07,50.91-28.16,0,0,13.36-20.21,34.68-28.64s54.88-6.68,88.61,7-1.43,109.14-1.43,109.14l6.23,31.41s-54.25,17.25-99-1.5c0,0-48.25-.75-78.75-21.75,0,0-28,34.5-26.25,84.5,0,0,7.75,1.5,6,22.75,0,0,11.75,9.17,7.33,14.17s-14.08-12.75-14.08-12.75l-39.08,6.91s-11.42-20.83-8.67-78.83c0,0,2-31.5,25-72.25S671.47,240.34,671.47,240.34Z"/><path class="cls-4" d="M664.73,446.23s5.78-9-1.6-18.82-15.62-11.19-31-8.86S609,433.81,610.49,445.61s6.52,16,19.68,22.39,22.75-4.43,22.75-4.43-6.74-5.11-1.1-13.53C656,443.79,664.73,446.23,664.73,446.23Z"/><path d="M637.8,434.3s-8.86,3.86-8.37,9.49,4.06,8.22,8.37,8.1,9.71-2.79,9-8.1S644.19,435.53,637.8,434.3Z"/><path d="M664.64,446.21s-9-7.62-19.19,4.19c-4.84,5.6-3.31,12.56-.37,18.33a21.9,21.9,0,0,0,7.75-5.17s-6.74-5.11-1.1-13.53C655.91,443.78,664.64,446.21,664.64,446.21Z"/><path class="cls-5" d="M614.33,439.33s-1.83,3.09,0,4.46S614.33,439.33,614.33,439.33Z"/><path class="cls-5" d="M622.17,451.17s-4.5-4-4-1.5S622.17,451.17,622.17,451.17Z"/><path class="cls-5" d="M635.17,459.17s-.84,2.66,1.33,2.66S635.17,459.17,635.17,459.17Z"/><path class="cls-5" d="M622.17,432.67s-1.34,3.33,0,4.5S623.67,433,622.17,432.67Z"/><path class="cls-5" d="M645.67,428.67s-1.5,3.83,0,4.66S645.67,428.67,645.67,428.67Z"/><path class="cls-5" d="M657.67,435.83s-7.17,2.34-5,2.67S657.67,435.83,657.67,435.83Z"/><path class="cls-5" d="M624.83,445s-1.83,1.83,0,2.5S627,446.17,624.83,445Z"/><path class="cls-5" d="M635,465.83s-8.35-3-5.6-3.33S635,465.83,635,465.83Z"/><use width="14.35" height="12.83" transform="translate(648.86 441.02) scale(0.55)" xlink:href="#dulce4"/><use width="14.35" height="12.83" transform="translate(653.24 434.12) scale(0.55)" xlink:href="#dulce4"/><use width="14.35" height="12.83" transform="translate(643.86 431.18) scale(0.55)" xlink:href="#dulce4"/><use width="14.35" height="12.83" transform="translate(646.44 422.79) scale(0.55)" xlink:href="#dulce4"/><use width="14.35" height="12.83" transform="translate(639.58 417.88) scale(0.55)" xlink:href="#dulce4"/><use width="14.35" height="12.83" transform="translate(633.71 424.23) scale(0.55)" xlink:href="#dulce4"/><use width="14.35" height="12.83" transform="translate(625.62 421.22) scale(0.55)" xlink:href="#dulce4"/><use width="14.35" height="12.83" transform="translate(624.15 430.83) scale(0.55)" xlink:href="#dulce4"/><use width="14.35" height="12.83" transform="translate(615.31 428.99) scale(0.55)" xlink:href="#dulce4"/><use width="14.35" height="12.83" transform="translate(615.12 439.77) scale(0.55)" xlink:href="#dulce4"/><use width="14.35" height="12.83" transform="translate(619.55 447.93) scale(0.55)" xlink:href="#dulce4"/><use width="14.35" height="12.83" transform="translate(629.26 455.42) scale(0.55)" xlink:href="#dulce4"/><use width="14.35" height="12.83" transform="translate(637.39 453.59) scale(0.55)" xlink:href="#dulce4"/><path class="cls-6" d="M689.78,239.14s15.22-13.83,33.71-14"/><path class="cls-3" d="M635.16,395.11s8,1.34,6,17.85c0,0-1.68,3.39,2.11,9.42s-8,11.93-12.18,5.69-12.55-12.69-12.76-12.69"/><path class="cls-3" d="M882.76,264.1s46.31-13.74,117.28-3c0,0,16.76-19.76,20.9-20.71a6.69,6.69,0,0,1,5.27-2.07s-.56-10.73,10.73-10.54a4.15,4.15,0,0,1,3.77,3.95,8.35,8.35,0,0,0-5.28,7.72s.57-8.09,7.72-8.28c0,0,5.46,1.51,2.45,6.78l-5.27,4s6.59-6.17,11.25-3.25-2.33,8.41-2.33,8.41l-1.17,1.17s3.09-4.25,6.42-4.25,5.25,0,5,6a5.35,5.35,0,0,1-5.75,5.58s3.5,20.6-18.75,38.88c0,0-1.5,34.54-31,20.54,0,0-78.75,5-124.62,10.5,0,0-16.13-18.5-14.13-33.25S882.76,264.1,882.76,264.1Z"/><path class="cls-1" d="M837.58,338.77s22.31-1,34.83-8.34c0,0-28.95-44.07,21.65-69.89,0,0,3.91-36.51-39.64-66.76C854.42,193.78,817.64,243.06,837.58,338.77Z"/><path class="cls-1" d="M862.5,200.82l.4-1.33q-3.52-2.9-7.59-5.71s-36.77,49.28-16.83,145a124.4,124.4,0,0,0,16.33-2.08C829,267.05,862.5,200.82,862.5,200.82Z"/><path class="cls-6" d="M857.81,196.44s-.68,1.25-1.79,3.57"/><path class="cls-7" d="M852.74,207.36c-8.88,21.28-24.74,70.74-7.16,121.82"/><path class="cls-6" d="M846.94,333c.47,1.25.95,2.49,1.46,3.73"/><path class="cls-1" d="M883.33,328.17l-11.87,3.26s-12-20.73-9.56-42.43c2.47-22.43,24.43-31.5,24.43-31.5l10.84,2.83S847.73,282,883.33,328.17Z"/><path class="cls-1" d="M894.33,248.88a37.46,37.46,0,0,1-9.08-10.43c-.89-3.4-2.58-11.57-1.94-16.79a95.27,95.27,0,0,0-18.25-20.5l-3,1.82c1.36,2.24,3.93,4.37,6.64,6.62,3.56,3,8.43,7,7.88,9.71-1.61,8.06,1.88,20.91,2,21.45l.12.46.25.41c5.5,9.21,11.68,13.77,16.2,16A55.44,55.44,0,0,0,894.33,248.88Z"/><path class="cls-3" d="M681.47,243.53l-10-3.83L626.75,175l-4-1.5a7.78,7.78,0,0,0-2-10.17s-7.46-1.75-11.19.25l.61-.83s-.17-6.92-14-3.5c0,0-.17-3.67-4.92-3.67s-6.17,1.92-6.17,1.92-6-3.61-18.23-3.64c0,0-44.14.28-50.72,40.59S611,272.05,611,272.05l20.84,6.85"/><path class="cls-8" d="M652.69,173.06s-18.28-4.21-31.08,6c0,0-24.31,33.82-9.14,58.5,0,0,26.14,29.07,50.82,14.08,0,0,19.59-24.53,6.4-29.07a10.65,10.65,0,0,1-13-4.21c-5.25-7.6,9.3-35.64,8.39-37.84S660.18,166.84,652.69,173.06Z"/><path class="cls-9" d="M649.86,198S633.68,213.35,635.5,230s17,20.73,25.75,10.33c0,0,4.62-5.14,4.79-10.33C666,230,649.37,235.33,649.86,198Z"/><path class="cls-10" d="M636.57,235s9.75-3,14.13.83a21.65,21.65,0,0,1,5.95,8.34s-5.09,4-13.71,0C642.94,244.16,637.55,239.3,636.57,235Z"/><path class="cls-6" d="M566,174.5s5.67,6.33,2.83,18"/><path class="cls-6" d="M569.63,196.76s.53,14.76,20,10.37"/><path class="cls-6" d="M594.67,176.29s-18.28,8.09-16.43,31.66"/><path class="cls-6" d="M582.81,174.5s13.7-2.25,20.82,9.61a48.41,48.41,0,0,1,5.59-20.2"/><path class="cls-6" d="M608.31,165.23c-2,.9-6.19,3.54-12,11.06"/><path class="cls-11" d="M614.77,317s7-24.68,18.17-40.84c0,0-16.8-33.39-50.13-31.5,0,0-14.27-12.92-28.18-12.92,0,0-10.93-12.85-27.9-9.79a32.75,32.75,0,0,0-5.42-7.11s-23.06,7.79-35.14,22.87-15.42,27.42-15.42,27.42-14.75,7.91-13.33,19.58c0,0,9.5,2.89,24.66-5.85,0,0,19.59,30.1,61.67,30.68s39.5-5.08,42.67-5.58,14.83-1.33,21.5,3.75A13.22,13.22,0,0,0,614.77,317Z"/><path class="cls-12" d="M585.17,294.17s-51-5.84-86.34-25.17c0,0-5.66-5.33-16.5-2.33,0,0,11-3.21,17.59,4.08s14.71,14.25,19.33,16.67,16.25,7.54,28.17,8.5S579.46,297.08,585.17,294.17Z"/><path class="cls-6" d="M512.46,225.83s2.8-4.77,14.52-3.88"/><path class="cls-6" d="M517.38,234.63s.39-5.45,37.25-2.85"/><path class="cls-6" d="M522,239.38s2.48-10.66,32-7.65"/><path class="cls-6" d="M566.63,257.13s14-23.51,39.5-3.38"/><path class="cls-6" d="M608.12,299.69a24.68,24.68,0,0,0,0,8.27"/><line class="cls-6" x1="524.85" y1="280.28" x2="521.33" y2="288.7"/><line class="cls-6" x1="538.38" y1="284.49" x2="538.38" y2="294.46"/><line class="cls-6" x1="553.79" y1="288.5" x2="553.49" y2="296.3"/><path class="cls-6" d="M524.23,213.84s-14-3.5-6.52-19.24"/><path class="cls-6" d="M523.2,195.4s-5.17,2-6.79-2.54"/><polyline class="cls-6" points="575.22 238.54 561.13 226.76 583.61 227.8"/><path class="cls-6" d="M585.8,233.12s-6.54,2-6.26,8.93"/><path class="cls-6" d="M592.63,237.58s-4.38-1.7-6.25,1.8,1.37,3.62,1.37,3.62"/><path class="cls-6" d="M591.25,243.88s3.5,1.62,4.5-2.88,6-3,5.63,0-1.63,4-3.52,5.31"/><path class="cls-6" d="M656.47,183.26s4.33,1,0,6.23-9.29,12.35-9.29,12.35"/><path class="cls-6" d="M589.65,160.73a27.62,27.62,0,0,1,14-1.91c7.76,1,5.91,5.09,5.91,5.09"/><path class="cls-6" d="M662.58,237.61s2.67-2.3,4.07-11.71c0,0-.38-3.7,5.22-3.06"/><path class="cls-13" d="M836.4,164.74s21.56,3,25.65,12.39.6,17.57-1.32,18.07-29.33,2.52-32.17,0S812.31,191,810,182.14s-.79-18.72-.79-18.72S825.56,156.27,836.4,164.74Z"/><path class="cls-14" d="M837,160s25.36,7.12,25.52,20c0,0-.63,4-16.07,1.19s-31.83-6.41-36.71-15.92S835,159.36,837,160Z"/><ellipse cx="851.48" cy="171.33" rx="1.5" ry="0.88"/><ellipse cx="844.31" cy="173.09" rx="1.5" ry="0.88"/><ellipse cx="856.31" cy="175.73" rx="1.5" ry="0.88"/><ellipse cx="837.9" cy="174.85" rx="1.5" ry="0.88"/><ellipse cx="831.31" cy="173.09" rx="1.5" ry="0.88"/><ellipse cx="824.23" cy="167.56" rx="1.5" ry="0.88"/><ellipse cx="818.06" cy="162.54" rx="1.5" ry="0.88"/><path d="M836.67,169.94s7.29,1,8.31-4-9.67-6.26-9.67-6.26-12.33-1.44-8.51,3.18a21.61,21.61,0,0,0,2.86,4.21C830.75,168,836.67,169.94,836.67,169.94Z"/><ellipse cx="848.4" cy="188.62" rx="2.7" ry="1.63" transform="translate(306.04 867.74) rotate(-63.92)"/><ellipse cx="836.4" cy="183.26" rx="1.92" ry="2.29" transform="translate(79.86 584.25) rotate(-40.28)"/><ellipse cx="858.18" cy="185.4" rx="1.37" ry="1.11" transform="translate(176.4 738.59) rotate(-51.25)"/><path class="cls-15" d="M795,169.38s-21.56,2-25.66,8.22-.59,11.65,1.33,12,29.33,1.67,32.16,0,16.25-2.82,18.59-8.66.79-12.42.79-12.42S805.83,163.77,795,169.38Z"/><path class="cls-4" d="M794.42,166.22S769.06,171,768.9,179.46c0,0,.63,2.67,16.07.78s31.82-4.25,36.7-10.55S796.39,165.81,794.42,166.22Z"/><ellipse cx="779.92" cy="173.75" rx="1.5" ry="0.58"/><ellipse cx="787.08" cy="174.92" rx="1.5" ry="0.58"/><ellipse cx="775.08" cy="176.67" rx="1.5" ry="0.58"/><ellipse cx="793.5" cy="176.09" rx="1.5" ry="0.58"/><ellipse cx="800.08" cy="174.92" rx="1.5" ry="0.58"/><ellipse cx="807.17" cy="171.25" rx="1.5" ry="0.58"/><ellipse cx="813.33" cy="167.92" rx="1.5" ry="0.58"/><path d="M794.72,172.83s-7.28.68-8.3-2.66,9.67-4.15,9.67-4.15,12.32-1,8.51,2.11a15.63,15.63,0,0,1-2.86,2.79C800.65,171.53,794.72,172.83,794.72,172.83Z"/><ellipse cx="782.99" cy="185.21" rx="1.38" ry="2.11" transform="translate(168.09 704.13) rotate(-53.47)"/><ellipse cx="795" cy="181.66" rx="2.11" ry="1.38" transform="translate(-20.39 168.98) rotate(-11.98)"/><ellipse cx="773.21" cy="183.08" rx="0.81" ry="1.24" transform="translate(405.18 887.3) rotate(-75.73)"/><path class="cls-15" d="M799.17,153.88s-21.56,2-25.66,8.22-.59,11.65,1.32,12,29.34,1.67,32.17,0,16.25-2.82,18.58-8.66.8-12.41.8-12.41S810,148.27,799.17,153.88Z"/><path class="cls-4" d="M798.59,150.73s-25.37,4.72-25.53,13.23c0,0,.63,2.68,16.07.79s31.83-4.26,36.71-10.56S800.56,150.31,798.59,150.73Z"/><ellipse cx="784.08" cy="158.26" rx="1.5" ry="0.58"/><ellipse cx="791.25" cy="159.42" rx="1.5" ry="0.58"/><ellipse cx="779.25" cy="161.17" rx="1.5" ry="0.58"/><ellipse cx="797.67" cy="160.59" rx="1.5" ry="0.58"/><ellipse cx="804.25" cy="159.42" rx="1.5" ry="0.58"/><ellipse cx="811.33" cy="155.76" rx="1.5" ry="0.58"/><ellipse cx="817.5" cy="152.42" rx="1.5" ry="0.58"/><path d="M798.89,157.33s-7.28.68-8.31-2.66,9.67-4.15,9.67-4.15,12.33-1,8.51,2.11a15.63,15.63,0,0,1-2.86,2.79C804.81,156,798.89,157.33,798.89,157.33Z"/><ellipse cx="787.16" cy="169.72" rx="1.38" ry="2.11" transform="translate(182.22 701.2) rotate(-53.47)"/><ellipse cx="799.17" cy="166.16" rx="2.11" ry="1.38" transform="translate(-17.08 169.51) rotate(-11.98)"/><ellipse cx="777.38" cy="167.58" rx="0.81" ry="1.24" transform="translate(423.33 879.66) rotate(-75.73)"/><path class="cls-16" d="M517.17,198c-3.17,10.17,8.16,23.67,8.16,23.67L514,224.33c33.17-3,22.33,7.84,22.33,7.84l13,2.33c24.17,5,18.17,22.33,18.17,22.33l5.5-5.16c21.67-15,55.5,33.16,55.5,33.16,2-4.66,7.21-11.56,7.21-11.56-6.45-15.83-34.77-33.85-34.77-33.85a6.14,6.14,0,0,1-2,6.66s-18.51.13-19.27-4.53a6.67,6.67,0,0,1,3-6.8c-57.66-11.83-65.85-41.05-65.85-41.05Z"/><path class="cls-16" d="M470.46,264.58s1.56,11.8,25.69,10.59c0,0,9.54,22.91,44.43,28.12s62.15-10.42,62.15-10.42l4.86,8.16,12.67-.52s-5.9,12.84-5.73,17.36c0,0-6.59-3.65-6.77-10.24,0,0-11.63-8.51-30.72-.18-34.51,7.31-82.63-2.43-94.61-28.47,0,0-30.55,14.76-24.3-.69C458.13,278.29,462.64,266.83,470.46,264.58Z"/><path class="cls-16" d="M617.44,242.89s7.76,17.64,27.11,19.35,21.78-15.12,21.78-15.12-3.33,11.79-23.69,8.07C622.42,248.64,617.44,242.89,617.44,242.89Z"/><path class="cls-17" d="M656.65,271.45s1.17,1.57-1.7,12.14,3.26,15.4,3.39,19.19-.52,6.13-1.69,7.44-8.09-.53-6.66-8.36,1.44-13.57-1.3-20.62-.65-23-.92-24.14-3.42-8.8.9-11.25a12.13,12.13,0,0,0,7.1-1.15s5.73,3.1,2.59,11.26S656.23,263.53,656.65,271.45Z"/><path class="cls-16" d="M1034,294.52l-7.56,5.29c-7.56,14.74-25.32,7.93-25.32,7.93l-14.35.38-55.55,2.27c-31.74,8.31-55.92,3.78-55.92,3.78a29.79,29.79,0,0,1-9.07,1.89c-1.51,4.15-15.11,6.8-15.11,6.8l-14.36,2.64c-29.47,6.43-56.3-10.2-56.3-10.2-20,7.56-56.67,2.27-74.81-6.8S689,302.83,689,302.83c-18.9,6.05-24.94,40.81-24.94,40.81l.6,1.91c7.72-21.26,18.08-34.05,18.08-34.05,30.5,21,78.75,21.75,78.75,21.75,32.06,13.43,69,8.39,87.36,4.45,1.86-.27,3.87-.6,5.95-1l-.06-.17a64.18,64.18,0,0,0,16.51-5.45l.2.36,11.87-3.26c-.75-1-1.45-1.94-2.12-2.89C927.31,319.87,1004,315,1004,315c27.2,12.91,30.6-15.45,31-19.95Z"/><path class="cls-16" d="M642.1,459.67c-15.8,1.62-24.63-9.06-26.16-21.38s11.29-13.7,11.29-13.7.46,8.59,10.22,6.5S643,423,643,423s-11.85,12.55-23.93-17.89c-11.13-28-8.46-68.48-8-74.69A116.56,116.56,0,0,0,608,348.25c-2.54,53.65,7,75.48,8.48,78.46a24,24,0,0,0-6,18.9c1.48,11.81,6.52,16,19.68,22.39a18.39,18.39,0,0,0,11.35,1.76l2.4-2Z"/><use width="14.41" height="9.81" transform="matrix(0.58, 0.1, -0.1, 0.58, 625.4, 441.11)" xlink:href="#dulce1"/><use width="14.41" height="9.81" transform="matrix(0.58, -0.09, 0.09, 0.58, 627.61, 429.01)" xlink:href="#dulce1"/><use width="14.41" height="9.81" transform="translate(618.46 433.49) rotate(-16.87) scale(0.59)" xlink:href="#dulce1"/><use width="14.41" height="9.81" transform="matrix(0.59, 0, 0, 0.59, 621.08, 422.3)" xlink:href="#dulce1"/><use width="14.41" height="9.81" transform="translate(618.02 440.82) rotate(10.02) scale(0.59)" xlink:href="#dulce1"/><use width="14.41" height="9.81" transform="translate(619.56 444.59) rotate(31.78) scale(0.59)" xlink:href="#dulce1"/><use width="14.41" height="9.81" transform="matrix(0.59, 0.02, -0.02, 0.59, 610.89, 438.07)" xlink:href="#dulce1"/><use width="14.41" height="9.81" transform="translate(631.96 454.83) rotate(88.16) scale(0.59)" xlink:href="#dulce1"/><use width="14.41" height="9.81" transform="translate(637.35 458.43) rotate(5.38) scale(0.59)" xlink:href="#dulce1"/><use width="14.41" height="9.81" transform="translate(636.21 450.39) rotate(2.54) scale(0.59)" xlink:href="#dulce1"/><use width="14.41" height="9.81" transform="matrix(0.59, 0.06, -0.06, 0.59, 646.66, 448.67)" xlink:href="#dulce1"/><use width="14.41" height="9.81" transform="translate(651.49 442.89) scale(0.59)" xlink:href="#dulce1"/><use width="14.41" height="9.81" transform="translate(652.77 432.66) rotate(3.58) scale(0.59)" xlink:href="#dulce1"/><use width="14.41" height="9.81" transform="matrix(0.57, -0.15, 0.15, 0.57, 643.58, 425.1)" xlink:href="#dulce1"/><use width="14.41" height="9.81" transform="matrix(0.57, -0.16, 0.16, 0.57, 638.16, 430.66)" xlink:href="#dulce1"/></svg>