<svg id="letra_M" data-name="letra M" xmlns="http://www.w3.org/2000/svg" xmlns:xlink="http://www.w3.org/1999/xlink" viewBox="0 0 1280 720"><defs><style>.cls-1{fill:none;}.cls-2{isolation:isolate;}.cls-3{fill:#80660a;}.cls-4{clip-path:url(#clip-path);}.cls-5{fill:#856a0a;}.cls-6{clip-path:url(#clip-path-2);}.cls-7{fill:#9e7e0c;}.cls-8{clip-path:url(#clip-path-3);}.cls-9{fill:#997a0b;}.cls-10{fill:#94760b;}.cls-11{clip-path:url(#clip-path-4);}.cls-12{fill:#9c7d0c;}.cls-13{fill:#ddb110;}</style><clipPath id="clip-path"><path class="cls-1" d="M331.69,429.06v-6.12c.21-1.09.41-2.15.61-3.18s.4-2,.59-3,.38-1.88.57-2.77.36-1.74.54-2.56l.51-2.31c.17-.72.33-1.39.49-2s.3-1.19.44-1.7.29-1,.42-1.4l1.32,0c-.17.55-.35,1.17-.54,1.85s-.39,1.43-.6,2.24-.41,1.7-.63,2.65-.45,2-.68,3.05-.48,2.22-.72,3.39l-.75,3.66-.78,3.93C332.23,426.21,332,427.61,331.69,429.06Z"/></clipPath><clipPath id="clip-path-2"><path class="cls-1" d="M325.83,403.74l1.44,0,.22.88c.09.37.19.8.31,1.31l.4,1.73c.15.65.31,1.37.49,2.16s.37,1.66.59,2.6.44,2,.69,3,.52,2.26.81,3.5.6,2.55.92,3.94v6.12l-1.22-5.21c-.38-1.64-.74-3.18-1.07-4.62s-.63-2.78-.92-4-.54-2.39-.77-3.43-.45-2-.65-2.85-.37-1.62-.53-2.29-.29-1.24-.41-1.73S325.91,404,325.83,403.74Z"/></clipPath><clipPath id="clip-path-3"><path class="cls-1" d="M283.87,375l11.65,7c0,1.4.08,2.76.12,4.06s.08,2.56.11,3.77.06,2.35.09,3.46.06,2.16.08,3.17,0,2,.06,2.86,0,1.76,0,2.57,0,1.56,0,2.26,0,1.36,0,2l-11.48.73c0-.8,0-1.67,0-2.6s0-1.93,0-3,0-2.19,0-3.39-.05-2.46-.08-3.78-.06-2.73-.1-4.19-.08-3-.12-4.58-.09-3.25-.15-5S283.93,376.89,283.87,375Z"/></clipPath><clipPath id="clip-path-4"><path class="cls-1" d="M379.39,405.27l-11.59-.33c0-1,0-1.94,0-2.91v-2.87c0-1,0-1.89,0-2.83s0-1.86,0-2.79,0-1.85,0-2.79,0-1.89,0-2.85,0-1.92,0-2.89,0-2,0-2.95l11.65-7c0,1.31,0,2.61-.06,3.89s0,2.57-.05,3.83,0,2.52,0,3.76,0,2.47,0,3.69,0,2.46,0,3.69,0,2.49,0,3.75,0,2.52,0,3.79S379.39,404,379.39,405.27Z"/></clipPath></defs><g class="cls-2"><polygon class="cls-3" points="378.93 490.24 367.45 469.24 367.8 404.94 379.39 405.27 378.93 490.24"/><g class="cls-2"><g class="cls-4"><g class="cls-2"><path class="cls-5" d="M331.69,429.06v-6.12c.21-1.09.41-2.15.61-3.18s.4-2,.59-3,.38-1.88.57-2.77.36-1.74.54-2.56l.51-2.31c.17-.72.33-1.39.49-2s.3-1.19.44-1.7.29-1,.42-1.4l1.32,0c-.17.55-.35,1.17-.54,1.85s-.39,1.43-.6,2.24-.41,1.7-.63,2.65-.45,2-.68,3.05-.48,2.22-.72,3.39l-.75,3.66-.78,3.93c-.26,1.35-.53,2.75-.8,4.2"/></g></g></g><g class="cls-2"><g class="cls-6"><g class="cls-2"><path class="cls-7" d="M325.83,403.74l1.44,0,.22.88c.09.37.19.8.31,1.31l.4,1.73c.15.65.31,1.37.49,2.16s.37,1.66.59,2.6.44,2,.69,3,.52,2.26.81,3.5.6,2.55.92,3.94v6.12l-1.22-5.21c-.38-1.64-.74-3.18-1.07-4.62s-.63-2.78-.92-4-.54-2.39-.77-3.43-.45-2-.65-2.85-.37-1.62-.53-2.29-.29-1.24-.41-1.73-.21-.87-.29-1.16"/></g></g></g><g class="cls-2"><g class="cls-8"><g class="cls-2"><path class="cls-9" d="M283.87,375l11.65,7c0,1.4.08,2.76.12,4.06s.08,2.56.11,3.77.06,2.35.09,3.46.06,2.16.08,3.17v1.16l-11.51-2v-1.54c0-1.33-.06-2.73-.1-4.19s-.08-3-.12-4.58-.09-3.25-.15-5-.1-3.51-.16-5.37"/><path class="cls-10" d="M284.43,395.68l11.51,2c0,.87,0,1.7.05,2.49s0,1.54,0,2.25,0,1.37,0,2,0,1.21,0,1.76l-11.48.73c0-.72,0-1.5,0-2.33s0-1.71,0-2.65,0-1.92-.05-3,0-2.13-.06-3.28"/></g></g></g><g class="cls-2"><g class="cls-11"><g class="cls-2"><path class="cls-5" d="M379.39,405.27l-11.59-.33c0-1,0-1.94,0-2.91v-2.87c0-1,0-1.89,0-2.83s0-1.86,0-2.79,0-1.85,0-2.79,0-1.89,0-2.85,0-1.92,0-2.89,0-2,0-2.95l11.65-7c0,1.31,0,2.61-.06,3.89s0,2.57-.05,3.83,0,2.52,0,3.76,0,2.47,0,3.69,0,2.46,0,3.69,0,2.49,0,3.75,0,2.52,0,3.79,0,2.55,0,3.84"/></g></g></g><polygon class="cls-12" points="301.92 317.6 309.18 338.6 327.27 403.78 325.83 403.74 301.92 317.6"/><polygon class="cls-3" points="337.19 404.09 335.87 404.05 354.41 338.6 361.69 317.6 337.19 404.09"/><path class="cls-13" d="M429.08,317.6V490.24H378.93l.46-85c0-1.29,0-2.57,0-3.84s0-2.54,0-3.79,0-2.51,0-3.75,0-2.46,0-3.69,0-2.45,0-3.69,0-2.49,0-3.76,0-2.54.05-3.83,0-2.58.06-3.89c-.47,2.23-1,4.51-1.48,6.83s-1.07,4.71-1.63,7.15-1.16,4.91-1.78,7.45-1.25,5.12-1.92,7.76l-.35,1.52-21.33,84.5H312.47L290.9,407.61c-.25-.94-.51-1.91-.76-2.92s-.51-2-.76-3.12-.51-2.18-.76-3.32-.51-2.32-.76-3.53-.53-2.53-.83-4-.6-3-.93-4.6-.69-3.39-1.06-5.24L283.87,375c.06,1.86.11,3.65.16,5.37s.1,3.38.15,5,.08,3.12.12,4.58.07,2.86.1,4.19.05,2.59.08,3.78,0,2.33,0,3.39,0,2.06,0,3,0,1.8,0,2.6v83.33H234.4V317.6h67.52l23.91,86.14c.08.29.17.68.29,1.16s.25,1.06.41,1.73.33,1.43.53,2.29.41,1.8.65,2.85.49,2.19.77,3.43.59,2.59.92,4,.69,3,1.07,4.62l1.22,5.21c.27-1.45.54-2.85.8-4.2l.78-3.93.75-3.66q.36-1.75.72-3.39c.23-1.08.46-2.1.68-3.05s.43-1.83.63-2.65.41-1.56.6-2.24.37-1.3.54-1.85l24.5-86.49Z"/></g></svg>